PathFileType	4	(X/Y/Z)	C:\Users\Basilio\Documents\Thesis Gigler\squatting_fais\c3dfiles\044\SJ_pre4\markers_experimental.trc
DataRate	CameraRate	NumFrames	NumMarkers	Units	OrigDataRate	OrigDataStartFrame	OrigNumFrames
200.000000	200.000000	4	63	mm	200.000000	1246	1425
Frame#	Time	FHD			LBHD			RBHD			C7			T10			CLAV			LSHO			LUUPA			LMUPA			LDUPA			LLEP			LMEP			LRAD			LUL			LRFIN			RSHO			RUPA1			RMUPA			RDUPA			RLEP			RMEP			RRAD			RUL			RUFIN			LASI			RASI			USACR			LSACR			LTHI1			LTHI2			LTHI3			LTHI4			LLFC			LMFC			LTIB1			LTIB2			LTIB3			LTIB4			LLMAL			LMMAL			LHEE			LMT1			LMT2			LMT5			RTHI			RTHI2			RTHI3			RTHI4			RLFC			RMFC			RTIB1			RTIB2			RTIB3			RTIB4			RLMAL			RMMAL			RHEE			RMT1			RMT2			RMT5			RSACR			*61			*62			
		X1	Y1	Z1	X2	Y2	Z2	X3	Y3	Z3	X4	Y4	Z4	X5	Y5	Z5	X6	Y6	Z6	X7	Y7	Z7	X8	Y8	Z8	X9	Y9	Z9	X10	Y10	Z10	X11	Y11	Z11	X12	Y12	Z12	X13	Y13	Z13	X14	Y14	Z14	X15	Y15	Z15	X16	Y16	Z16	X17	Y17	Z17	X18	Y18	Z18	X19	Y19	Z19	X20	Y20	Z20	X21	Y21	Z21	X22	Y22	Z22	X23	Y23	Z23	X24	Y24	Z24	X25	Y25	Z25	X26	Y26	Z26	X27	Y27	Z27	X28	Y28	Z28	X29	Y29	Z29	X30	Y30	Z30	X31	Y31	Z31	X32	Y32	Z32	X33	Y33	Z33	X34	Y34	Z34	X35	Y35	Z35	X36	Y36	Z36	X37	Y37	Z37	X38	Y38	Z38	X39	Y39	Z39	X40	Y40	Z40	X41	Y41	Z41	X42	Y42	Z42	X43	Y43	Z43	X44	Y44	Z44	X45	Y45	Z45	X46	Y46	Z46	X47	Y47	Z47	X48	Y48	Z48	X49	Y49	Z49	X50	Y50	Z50	X51	Y51	Z51	X52	Y52	Z52	X53	Y53	Z53	X54	Y54	Z54	X55	Y55	Z55	X56	Y56	Z56	X57	Y57	Z57	X58	Y58	Z58	X59	Y59	Z59	X60	Y60	Z60	X61	Y61	Z61	X62	Y62	Z62	X63	Y63	Z63	

1247	6.23	-234.0572814941407	1747.927856445313	-902.656188964844	-366.3119812011719	1714.226928710938	-981.4844360351565	-412.9542541503907	1704.039306640625	-821.6552734375002	-448.7239685058595	1534.211181640625	-905.2092285156252	-486.5496215820314	1228.49072265625	-905.5979003906252	-302.6633300781251	1486.593383789063	-896.137634277344	-332.2372741699219	1524.763305664063	-1078.540283203125	-395.8080139160157	1355.189208984375	-1232.002075195313	-366.4661560058594	1315.01123046875	-1220.7353515625	-405.5227661132814	1294.21875	-1263.77001953125	-406.0606384277345	1234.900512695313	-1276.63720703125	-479.5679016113282	1231.38330078125	-1234.693481445313	-394.625701904297	998.9869384765627	-1121.810302734375	-349.4150695800782	982.0355224609377	-1172.264282226563	-341.8763732910157	999.1706542968752	-1077.694702148438	-367.2078247070313	1508.886596679688	-705.6621704101564	-439.9298095703126	1342.564697265625	-567.4259033203126	-407.8150329589845	1302.859741210938	-571.0169067382814	-447.7580871582032	1281.406372070313	-532.6765136718751	-442.6779785156251	1219.427734375	-517.7204589843751	-516.0601806640626	1208.373291015625	-564.1556396484376	-407.5626831054689	993.5994873046877	-679.8215332031251	-366.4223022460938	976.4349365234377	-623.0800170898439	-346.5326232910157	998.454284667969	-725.1390991210939	-310.9316406250001	1021.790649414063	-1009.117919921875	-314.2586059570313	1003.527160644531	-794.195739746094	-478.5701599121095	1079.656982421875	-901.4636230468752	-481.7526245117189	1046.552734375	-929.404479980469	-405.3901367187501	793.9971923828127	-1110.954467773438	-366.1003417968751	719.2586669921876	-1121.219848632813	-319.1875610351563	724.7078247070314	-1114.059936523438	-388.2752685546876	663.3775024414064	-1112.646606445313	-360.6368103027344	507.9324951171876	-1115.137084960938	-348.6482543945313	489.5293884277345	-995.6616210937502	-356.2059936523438	324.9857482910157	-1059.846557617188	-390.2038879394532	289.1499633789063	-1133.7900390625	-359.9742126464844	280.4732360839844	-1098.793090820313	-386.1808471679689	203.2381591796876	-1075.422729492188	-453.5831604003907	96.13714599609378	-1131.692016601563	-432.0267639160157	98.08419036865237	-1046.475341796875	-513.4655151367189	48.5609703063965	-1083.964111328125	-295.9931030273438	60.10345840454103	-1074.800415039063	-299.3470458984376	62.10517501831056	-1121.076171875	-334.6790771484376	39.2587013244629	-1167.685424804688	-407.306365966797	737.8544311523439	-707.7525024414064	-362.3070678710938	688.3514404296876	-697.5992431640626	-329.4691467285157	693.3382568359376	-699.7028808593751	-376.6831665039063	606.0550537109376	-712.7858276367189	-369.6167907714844	495.3753051757814	-714.3229370117189	-363.6142578125001	483.9610290527345	-835.386901855469	-340.5761108398438	361.8929138183594	-732.6152343750001	-424.6010131835939	305.3354797363282	-688.9749755859376	-383.6917419433594	290.7485351562501	-703.2395629882814	-381.2618408203126	238.2229766845704	-726.5493164062501	-473.6737365722657	96.58133697509768	-711.1526489257814	-445.4786376953126	98.6093444824219	-792.273620605469	-525.5144042968751	50.23218917846681	-760.0001831054689	-314.2500000000001	61.65257263183595	-752.8638916015626	-310.5822448730469	60.3074417114258	-715.1422119140626	-351.9631347656251	40.20570755004884	-666.4160766601564	-485.2995910644532	1050.338256835938	-872.2731933593752	nan	nan	nan	nan	nan	nan	
1248	6.235	-234.1034240722657	1748.4814453125	-902.5848388671877	-367.3407287597657	1714.169067382813	-981.1682739257815	-413.8044433593751	1703.947998046875	-821.4018554687502	-449.2232360839845	1534.208374023438	-905.1226806640627	-486.7211303710939	1228.433471679688	-905.605163574219	-303.5229797363282	1486.56982421875	-895.866394042969	-332.5322570800782	1525.057495117188	-1078.431518554688	-395.9486083984376	1355.23095703125	-1231.805541992188	-366.5032653808594	1315.096313476563	-1220.494140625	-405.5243530273439	1294.142211914063	-1263.5791015625	-406.0007324218751	1234.902099609375	-1276.443359375	-479.5696411132814	1231.364624023438	-1234.566650390625	-394.6902465820314	999.0086059570315	-1121.764770507813	-349.3777465820313	982.029235839844	-1172.161865234375	-341.8281555175782	999.1778564453127	-1077.629516601563	-367.7460632324219	1508.947265625	-705.4918823242189	-440.043670654297	1342.020751953125	-567.3330688476564	-407.8985290527345	1302.620239257813	-571.1741333007814	-447.8334350585939	1280.764038085938	-532.6431884765626	-442.5696716308595	1218.746459960938	-517.7503051757814	-515.9534912109376	1207.772827148438	-564.2779541015626	-407.7539672851564	993.394714355469	-679.7657470703126	-366.0377807617188	975.804870605469	-623.0518188476564	-346.4546813964844	997.6634521484377	-724.7537841796876	-310.6893005371094	1021.919494628906	-1009.118225097656	-314.2146606445313	1003.440185546875	-794.1312255859377	-478.4224548339845	1078.7890625	-901.1387939453127	-481.7301635742189	1046.52587890625	-929.2622680664065	-405.4283447265626	794.097106933594	-1110.838500976563	-366.1993103027344	719.4229736328126	-1121.06005859375	-319.1909790039063	724.7128906250001	-1113.963500976563	-388.3919067382814	663.4735717773439	-1112.554321289063	-360.7852172851563	507.9631652832032	-1114.979370117188	-348.7254333496094	489.5437927246095	-995.6231689453127	-356.2782287597657	325.0084228515626	-1059.745971679688	-390.3081359863282	289.2018127441407	-1133.721069335938	-360.0385131835938	280.4802856445313	-1098.785522460938	-386.3716735839845	203.3656463623047	-1075.439575195313	-454.0034484863282	96.65228271484378	-1131.58349609375	-432.056121826172	98.09104919433597	-1046.454711914063	-513.5009155273439	48.51362991333009	-1083.947875976563	-295.9824829101563	60.08547973632814	-1074.844482421875	-299.4454345703126	61.62668228149415	-1121.382446289063	-334.6860656738282	39.2624626159668	-1167.681884765625	-407.3306274414064	737.9489746093751	-707.8143920898439	-362.3640747070313	688.3953857421876	-697.6574096679689	-329.5225524902344	693.4319458007814	-699.8552856445314	-376.9321289062501	606.2633666992189	-712.8208618164064	-370.0030822753907	495.4990539550782	-714.3680419921876	-363.8956604003907	484.0140686035157	-835.4184570312502	-340.7702636718751	362.0487670898438	-732.7106933593751	-424.7958068847657	305.2916259765626	-688.9530029296876	-383.8387756347657	290.7848205566407	-703.2011718750001	-381.5240478515626	238.302719116211	-726.4448852539064	-473.6782836914064	96.56386566162112	-711.1476440429689	-445.4761657714845	98.59466552734378	-792.2734375000002	-525.5150756835939	50.20191192626955	-760.0134277343751	-314.2764587402344	61.66511154174806	-752.8536987304689	-310.6059875488282	60.32904052734376	-715.1848144531251	-351.9704895019532	40.20541381835938	-666.4196777343751	-485.4708557128907	1050.353515625	-872.0992431640627	nan	nan	nan	nan	nan	nan	
1249	6.24	-235.3697509765626	1748.778564453125	-901.772155761719	-368.3820190429688	1714.136962890625	-980.9490356445315	-414.8789978027345	1704.064208984375	-821.218688964844	-449.7005004882814	1534.1953125	-905.0573730468752	-486.8970336914064	1228.451538085938	-905.627136230469	-303.9855346679688	1486.820922851563	-895.5178222656252	-332.7779235839844	1525.127075195313	-1078.342407226563	-395.9857788085939	1355.293701171875	-1231.665649414063	-366.5013122558594	1315.189575195313	-1220.3369140625	-405.5486450195314	1294.2392578125	-1263.473754882813	-405.8692932128907	1234.970703125	-1276.285400390625	-479.5178222656251	1231.261840820313	-1234.45556640625	-394.6533508300782	998.9251098632815	-1121.703002929688	-349.3832702636719	981.9681396484377	-1172.046264648438	-341.7509765625001	999.2100830078127	-1077.609619140625	-368.4689636230469	1508.89111328125	-705.3143920898439	-440.3360595703126	1341.650756835938	-567.3624267578126	-408.0403747558595	1302.3701171875	-571.1378784179689	-447.7822875976564	1280.448486328125	-532.8450927734376	-442.4175720214845	1218.129028320313	-517.8231201171876	-515.6559448242189	1207.116333007813	-564.2478637695314	-407.6016845703126	992.564392089844	-679.5975952148439	-365.7776489257813	975.249938964844	-622.7160644531251	-346.2696838378907	997.0704345703127	-724.3717041015626	-310.7550048828126	1021.938659667969	-1009.015319824219	-314.3032531738282	1003.31591796875	-793.9093017578127	-478.4042358398439	1078.971801757813	-901.1380004882815	-481.7540283203126	1046.434692382813	-929.0937500000002	-405.4313964843751	794.1392211914065	-1110.791137695313	-366.3676147460938	719.5155029296876	-1120.962036132813	-319.3103332519532	724.7504272460939	-1113.89404296875	-388.4191284179689	663.5745849609376	-1112.427978515625	-360.9635925292969	508.0191650390626	-1114.861450195313	-348.8041381835938	489.511688232422	-995.4463500976565	-356.3223266601563	325.0063476562501	-1059.643798828125	-390.5349731445314	289.1719360351563	-1133.679931640625	-360.1203308105469	280.5964660644532	-1098.7353515625	-386.4293823242189	203.3326873779297	-1075.4326171875	-453.6541137695314	96.18012237548831	-1131.746215820313	-432.0204162597657	98.04254150390628	-1046.423095703125	-513.5078735351564	48.5380096435547	-1084.058837890625	-295.9797973632813	60.02867126464845	-1074.779907226563	-299.3699340820313	62.174373626709	-1121.064208984375	-334.8056030273438	39.25066375732423	-1167.65087890625	-407.3656311035157	738.0477905273439	-707.8533935546876	-362.4419555664063	688.4111938476564	-697.6607055664064	-329.5889282226563	693.4892578125001	-699.8950195312501	-377.1244201660157	606.2515258789064	-712.6964111328126	-370.2564392089844	495.5910949707032	-714.4288330078126	-364.0885620117188	484.0183410644532	-835.4387207031252	-341.0476074218751	362.2048034667969	-732.7223510742189	-425.0483703613282	305.3780517578126	-688.9638061523439	-383.9613952636719	290.8406372070313	-703.2110595703126	-381.7162475585938	238.238998413086	-726.4798583984376	-473.6784973144532	96.51900482177737	-711.1561889648439	-445.5399780273439	98.58026123046878	-792.2539672851565	-525.1980590820314	49.8688430786133	-760.0333862304689	-313.8069458007813	61.5660972595215	-753.0659790039064	-310.6182861328126	60.29846954345705	-715.1420288085939	-352.0815429687501	40.11144256591798	-666.4003295898439	-485.3650817871095	1050.275756835938	-871.9877929687502	nan	nan	nan	nan	nan	nan	
1250	6.245	-236.4746093750001	1749.148681640625	-901.4653930664065	-369.0253601074219	1714.293212890625	-980.6726684570315	-415.6781616210939	1704.085693359375	-821.0103149414065	-450.2626953125001	1534.0693359375	-904.9061279296877	-487.1069946289064	1228.421752929688	-905.5906982421877	-304.1169128417969	1486.988037109375	-895.3359375000002	-333.3038024902344	1525.193115234375	-1078.123779296875	-396.1175231933595	1355.32958984375	-1231.523803710938	-366.6018981933594	1315.299438476563	-1220.195068359375	-405.5479431152345	1294.356201171875	-1263.288330078125	-405.8328247070314	1234.95751953125	-1276.099853515625	-479.5972900390626	1231.212280273438	-1234.308715820313	-394.5432128906251	998.8137817382815	-1121.605346679688	-349.3251037597657	981.9947509765627	-1172.041381835938	-341.7027893066407	999.242126464844	-1077.533203125	-369.1054687500001	1508.84619140625	-705.0007934570314	-440.7666625976564	1341.365844726563	-567.4494018554689	-408.170623779297	1302.1748046875	-571.1011962890626	-447.8435058593751	1279.9736328125	-532.7722778320314	-442.2332763671876	1217.664428710938	-517.8357543945314	-515.4234008789064	1206.556518554688	-564.2644653320314	-407.3298645019532	991.864685058594	-679.3970336914064	-365.4674987792969	974.5040283203127	-622.4367065429689	-346.1676025390626	996.4583129882815	-724.1134033203126	-310.6717529296876	1022.005187988281	-1008.912109375	-314.4270019531251	1003.197692871094	-793.6931762695315	-478.4190673828126	1078.9462890625	-900.9724121093752	-481.8223571777345	1046.339721679688	-928.9597778320315	-405.4349670410157	794.2595214843752	-1110.675659179688	-366.4753112792969	719.6180419921876	-1120.781860351563	-319.2926330566407	724.8176879882814	-1113.884765625	-388.5982055664064	663.7408447265626	-1112.295654296875	-361.2009277343751	508.0562133789064	-1114.770141601563	-348.9243469238282	489.5405273437501	-995.4695434570315	-356.3612060546876	325.0518798828126	-1059.607788085938	-390.6733703613282	289.1838684082032	-1133.621826171875	-360.6460876464844	280.3056335449219	-1098.505493164063	-386.4782714843751	203.4271392822266	-1075.341796875	-453.6679992675782	96.16092681884768	-1131.766845703125	-432.0269470214845	98.03774261474612	-1046.48974609375	-513.5258789062501	48.54656219482423	-1084.04443359375	-295.9867248535157	60.10063934326173	-1074.786254882813	-299.3449707031251	61.92712402343751	-1121.031494140625	-334.7852478027344	39.25065994262696	-1167.692138671875	-407.4938049316407	738.2328491210939	-707.8805541992189	-362.5247497558594	688.4378662109376	-697.6776123046876	-329.6361083984376	693.5632324218751	-699.9593505859376	-377.2637939453126	606.4109497070314	-712.8336791992189	-370.4845275878907	495.666229248047	-714.5296020507814	-364.3229980468751	484.1006469726564	-835.5020141601565	-341.2018432617188	362.1746520996094	-732.8679809570314	-425.2928466796876	305.3313598632813	-688.9232177734376	-384.0914001464845	290.8904724121094	-703.2656860351564	-381.8517456054688	238.4633941650391	-726.4616088867189	-473.6800231933595	96.58603668212893	-711.1564331054689	-445.5625000000001	98.5861740112305	-792.2625122070315	-525.5122680664064	50.20032501220705	-759.9674072265626	-313.7553710937501	61.61970520019533	-753.0681152343751	-310.6003417968751	60.17256546020509	-715.0582885742189	-352.0372924804688	40.13385009765626	-666.3602294921876	-485.441864013672	1050.162475585938	-871.853210449219	nan	nan	nan	nan	nan	nan	
